<svg width="19" height="18" viewBox="0 0 19 18" fill="none" xmlns="http://www.w3.org/2000/svg">
<g clip-path="url(#clip0_1756_18210)">
<path d="M2.9305 4.57331C3.4005 4.24481 4.109 4.30781 4.531 4.65631L4.047 3.95281C3.6575 3.39731 3.797 2.79631 4.353 2.40631C4.909 2.01781 6.4845 3.06231 6.4845 3.06231C6.0915 2.50131 6.165 1.79031 6.726 1.39681C7.287 1.00481 8.061 1.14031 8.454 1.70231L13.664 9.06231L13 15.4998L7.4585 13.4788L2.625 6.31231C2.2285 5.74781 2.3655 4.96931 2.9305 4.57331Z" fill="#EF9645"/>
<path d="M1.84748 8.66804C1.84748 8.66804 1.28148 7.84304 2.10698 7.27754C2.93148 6.71204 3.49698 7.53654 3.49698 7.53654L6.12248 11.3655C6.21298 11.2145 6.31198 11.0655 6.42248 10.9185L2.77848 5.60504C2.77848 5.60504 2.21298 4.78054 3.03798 4.21504C3.86248 3.64954 4.42798 4.47404 4.42798 4.47404L7.85548 9.47254C7.98298 9.36854 8.11348 9.26404 8.24798 9.16154L4.27448 3.36604C4.27448 3.36604 3.70898 2.54154 4.53398 1.97604C5.35848 1.41054 5.92398 2.23504 5.92398 2.23504L9.89748 8.02954C10.0435 7.94004 10.188 7.86254 10.333 7.78054L6.61898 2.36454C6.61898 2.36454 6.05348 1.54004 6.87798 0.97454C7.70248 0.40904 8.26798 1.23354 8.26798 1.23354L12.195 6.96054L12.792 7.83154C10.318 9.52854 10.0825 12.721 11.496 14.7825C11.7785 15.195 12.191 14.9125 12.191 14.9125C10.4945 12.438 11.0125 9.65754 13.487 7.96104L12.7575 4.31004C12.7575 4.31004 12.485 3.34804 13.4465 3.07504C14.4085 2.80254 14.6815 3.76454 14.6815 3.76454L15.524 6.26654C15.858 7.25854 16.2135 8.24704 16.684 9.18204C18.0125 11.822 17.219 15.103 14.714 16.8215C11.9815 18.695 8.24598 17.9985 6.37198 15.2665L1.84748 8.66804Z" fill="#FFDC5D"/>
<path d="M6.5 16.021C4.5 16.021 2.479 14 2.479 12C2.479 11.7235 2.2765 11.5 2 11.5C1.7235 11.5 1.479 11.7235 1.479 12C1.479 15 3.5 17.021 6.5 17.021C6.7765 17.021 7 16.7765 7 16.5C7 16.2235 6.7765 16.021 6.5 16.021Z" fill="#5DADEC"/>
<path d="M4 17C2.5 17 1.5 16 1.5 14.5C1.5 14.2235 1.2765 14 1 14C0.7235 14 0.5 14.2235 0.5 14.5C0.5 16.5 2 18 4 18C4.2765 18 4.5 17.7765 4.5 17.5C4.5 17.2235 4.2765 17 4 17ZM12.5 1C12.224 1 12 1.224 12 1.5C12 1.776 12.224 2 12.5 2C14.5 2 16.5 3.7945 16.5 6C16.5 6.276 16.724 6.5 17 6.5C17.276 6.5 17.5 6.276 17.5 6C17.5 3.243 15.5 1 12.5 1Z" fill="#5DADEC"/>
<path d="M15 0.0209961C14.724 0.0209961 14.5 0.223996 14.5 0.499996C14.5 0.775996 14.724 1.021 15 1.021C16.5 1.021 17.479 2.1335 17.479 3.5C17.479 3.776 17.7235 4 18 4C18.2765 4 18.479 3.776 18.479 3.5C18.479 1.5815 17 0.0209961 15 0.0209961Z" fill="#5DADEC"/>
</g>
<defs>
<clipPath id="clip0_1756_18210">
<rect width="18" height="18" fill="white" transform="translate(0.5)"/>
</clipPath>
</defs>
</svg>
